<?xml version="1.0" encoding="utf-8"?>
<!-- Generator: Adobe Illustrator 15.1.0, SVG Export Plug-In . SVG Version: 6.00 Build 0)  -->
<!DOCTYPE svg PUBLIC "-//W3C//DTD SVG 1.1//EN" "http://www.w3.org/Graphics/SVG/1.1/DTD/svg11.dtd">
<svg version="1.1" id="Layer_1" xmlns="http://www.w3.org/2000/svg" xmlns:xlink="http://www.w3.org/1999/xlink" x="0px" y="0px"
	 width="16px" height="16px" viewBox="0 0 16 16" enable-background="new 0 0 16 16" xml:space="preserve">
<g id="g3554" transform="matrix(1.8,0,0,1.8,-88.63613,-922.6513)">
	<path id="path5534" d="M55.55,516.262h-1.917l-0.588-0.316v-0.892l3.771-0.348v1.164l-1.265,0.247V516.262z"/>
	<path id="path5536" d="M49.432,517.493l8.642,0.015l-0.001-1.607l-2.478,0.544h-3.606l-2.556,0.683
		C49.281,517.19,49.231,517.493,49.432,517.493z"/>
	<path id="path1874" d="M51.891,518.218c0,0.307-0.248,0.556-0.555,0.557c-0.307,0.001-0.556-0.247-0.558-0.554
		c-0.001-0.307,0.246-0.557,0.553-0.559c0.307-0.002,0.558,0.244,0.561,0.551"/>
	<path id="path1876" d="M53.144,518.218c0,0.307-0.248,0.556-0.555,0.557c-0.307,0.001-0.557-0.247-0.558-0.554
		c-0.001-0.307,0.246-0.557,0.553-0.559c0.307-0.002,0.557,0.244,0.561,0.551"/>
	<path id="path1880" d="M54.375,518.218c0,0.307-0.248,0.556-0.555,0.557s-0.557-0.247-0.558-0.554
		c-0.002-0.307,0.245-0.557,0.552-0.559c0.307-0.002,0.558,0.244,0.561,0.551"/>
	<path id="path3511" d="M55.636,518.218c0,0.307-0.248,0.556-0.556,0.557s-0.557-0.247-0.558-0.554
		c-0.002-0.307,0.246-0.557,0.553-0.559c0.307-0.002,0.558,0.244,0.561,0.551"/>
	<path id="path1890" d="M49.935,517.669l-0.26,0.012c-0.144,0.36-0.024,0.688,0.373,0.932c0.448,0.275,0.986,0.539,1.142,0.543
		l5.294,0.002c0.156-0.004,0.694-0.269,1.143-0.543c0.397-0.244,0.518-0.573,0.373-0.933l-0.26-0.011
		c0.078,0.336,0.146,0.563-0.341,0.793c-0.397,0.189-0.818,0.413-0.884,0.427H51.16c-0.066-0.014-0.486-0.239-0.884-0.427
		C49.79,518.232,49.856,518.005,49.935,517.669z M49.302,515.225v0.369l3.615,0.123v-0.497L49.302,515.225z"/>
	<path id="path1884" d="M56.886,518.247c0,0.307-0.248,0.556-0.556,0.557c-0.307,0.001-0.557-0.247-0.558-0.554
		c-0.001-0.307,0.245-0.557,0.552-0.559c0.307-0.002,0.558,0.245,0.561,0.551"/>
	<path id="path1886" d="M57.658,517.989c0,0.174-0.142,0.317-0.317,0.317c-0.175,0-0.318-0.141-0.319-0.316
		c0-0.175,0.141-0.318,0.316-0.319c0.175-0.002,0.318,0.139,0.32,0.314"/>
	<path id="path1888" d="M50.647,517.989c0,0.174-0.142,0.317-0.317,0.317c-0.175,0-0.317-0.141-0.318-0.316
		c-0.001-0.175,0.14-0.318,0.315-0.319c0.175-0.002,0.318,0.139,0.32,0.314"/>
</g>
</svg>
