<?xml version="1.0" encoding="utf-8"?>
<!-- Generator: Adobe Illustrator 15.1.0, SVG Export Plug-In . SVG Version: 6.00 Build 0)  -->
<!DOCTYPE svg PUBLIC "-//W3C//DTD SVG 1.1//EN" "http://www.w3.org/Graphics/SVG/1.1/DTD/svg11.dtd">
<svg version="1.1" id="Layer_1" xmlns="http://www.w3.org/2000/svg" xmlns:xlink="http://www.w3.org/1999/xlink" x="0px" y="0px"
	 width="48px" height="48px" viewBox="0 0 48 48" enable-background="new 0 0 48 48" xml:space="preserve">
<g id="g3554" transform="matrix(1.8,0,0,1.8,-88.63613,-922.6513)">
	<path id="path5534" d="M68.202,523.59h-5.789l-1.777-0.955v-2.694l11.388-1.051v3.516l-3.822,0.745V523.59z"/>
	<path id="path5536" d="M49.725,527.307l26.099,0.046l-0.004-4.853l-7.485,1.643H57.445l-7.719,2.063
		C49.271,526.392,49.12,527.307,49.725,527.307z"/>
	<path id="path1874" d="M57.152,529.498c0,0.927-0.75,1.679-1.677,1.682c-0.927,0.002-1.681-0.747-1.686-1.673
		c-0.004-0.927,0.742-1.683,1.669-1.69c0.927-0.007,1.684,0.738,1.694,1.665"/>
	<path id="path1876" d="M60.936,529.498c0,0.927-0.75,1.679-1.677,1.682c-0.927,0.002-1.681-0.747-1.685-1.673
		c-0.005-0.927,0.742-1.683,1.669-1.69c0.927-0.007,1.685,0.738,1.694,1.665"/>
	<path id="path1880" d="M64.654,529.498c0,0.927-0.75,1.679-1.676,1.682c-0.927,0.002-1.682-0.747-1.686-1.673
		c-0.004-0.927,0.742-1.683,1.669-1.69c0.927-0.007,1.685,0.738,1.694,1.665"/>
	<path id="path3511" d="M68.46,529.498c0,0.927-0.75,1.679-1.676,1.682c-0.927,0.002-1.682-0.747-1.686-1.673
		c-0.005-0.927,0.742-1.683,1.668-1.69c0.927-0.007,1.685,0.738,1.694,1.665"/>
	<path id="path1890" d="M51.244,527.839l-0.784,0.036c-0.436,1.086-0.073,2.08,1.127,2.815c1.353,0.829,2.978,1.627,3.448,1.64
		l15.991,0.005c0.47-0.012,2.096-0.811,3.448-1.64c1.2-0.735,1.564-1.732,1.127-2.818l-0.785-0.034
		c0.237,1.016,0.44,1.702-1.029,2.398c-1.203,0.57-2.473,1.247-2.671,1.289l-16.17-0.002c-0.198-0.041-1.467-0.722-2.67-1.291
		C50.807,529.541,51.008,528.855,51.244,527.839z M49.334,520.458v1.114l10.919,0.371v-1.502L49.334,520.458z"/>
	<path id="path1884" d="M72.237,529.586c0,0.927-0.75,1.679-1.678,1.682c-0.927,0.002-1.681-0.747-1.686-1.673
		c-0.004-0.927,0.742-1.682,1.669-1.69c0.927-0.006,1.685,0.738,1.694,1.665"/>
	<path id="path1886" d="M74.568,528.804c0,0.528-0.428,0.958-0.956,0.958c-0.528,0.002-0.959-0.425-0.961-0.953
		c-0.003-0.528,0.423-0.959,0.952-0.963c0.528-0.004,0.96,0.42,0.966,0.949"/>
	<path id="path1888" d="M53.397,528.804c0,0.528-0.428,0.958-0.956,0.958c-0.528,0.002-0.958-0.425-0.961-0.953
		c-0.002-0.528,0.423-0.959,0.951-0.963c0.529-0.004,0.961,0.42,0.966,0.949"/>
</g>
</svg>
