<?xml version="1.0" encoding="utf-8"?>
<!-- Generator: Adobe Illustrator 15.1.0, SVG Export Plug-In . SVG Version: 6.00 Build 0)  -->
<!DOCTYPE svg PUBLIC "-//W3C//DTD SVG 1.1//EN" "http://www.w3.org/Graphics/SVG/1.1/DTD/svg11.dtd">
<svg version="1.1" id="Layer_1" xmlns="http://www.w3.org/2000/svg" xmlns:xlink="http://www.w3.org/1999/xlink" x="0px" y="0px"
	 width="128px" height="128px" viewBox="0 0 128 128" enable-background="new 0 0 128 128" xml:space="preserve">
<g id="g3554" transform="matrix(1.8,0,0,1.8,-88.63613,-922.6513)">
	<path id="path5534" d="M99.752,541.728H84.364l-4.723-2.539v-7.161l30.268-2.793v9.344l-10.157,1.981V541.728z"/>
	<path id="path5536" d="M50.643,551.609l69.373,0.124l-0.011-12.899l-19.897,4.368H71.16l-20.518,5.485
		C49.434,549.175,49.033,551.609,50.643,551.609z"/>
	<path id="path1874" d="M70.381,557.431c0,2.463-1.994,4.463-4.457,4.469c-2.464,0.005-4.467-1.984-4.48-4.448
		c-0.012-2.463,1.972-4.472,4.435-4.491c2.464-0.017,4.478,1.962,4.502,4.426"/>
	<path id="path1876" d="M80.44,557.431c0,2.463-1.994,4.463-4.458,4.469c-2.464,0.005-4.468-1.984-4.48-4.448
		c-0.012-2.463,1.972-4.472,4.435-4.491c2.464-0.017,4.478,1.962,4.502,4.426"/>
	<path id="path1880" d="M90.322,557.431c0,2.463-1.994,4.463-4.459,4.469c-2.463,0.005-4.467-1.984-4.479-4.448
		c-0.012-2.463,1.971-4.472,4.435-4.491c2.464-0.017,4.478,1.962,4.502,4.426"/>
	<path id="path3511" d="M100.439,557.431c0,2.463-1.993,4.463-4.457,4.469c-2.463,0.005-4.468-1.984-4.48-4.448
		c-0.012-2.463,1.972-4.472,4.436-4.491c2.463-0.017,4.476,1.962,4.501,4.426"/>
	<path id="path1890" d="M54.679,553.022l-2.084,0.096c-1.16,2.887-0.194,5.527,2.996,7.484c3.595,2.203,7.914,4.324,9.165,4.358
		l42.502,0.014c1.251-0.034,5.571-2.156,9.166-4.359c3.19-1.955,4.156-4.604,2.995-7.49l-2.083-0.089
		c0.627,2.702,1.168,4.525-2.738,6.375c-3.196,1.514-6.576,3.316-7.102,3.423l-42.979-0.007c-0.527-0.109-3.899-1.917-7.095-3.431
		C53.518,557.547,54.052,555.724,54.679,553.022z M49.601,533.403v2.961l29.023,0.987v-3.992L49.601,533.403z"/>
	<path id="path1884" d="M110.478,557.665c0,2.463-1.995,4.462-4.458,4.468c-2.464,0.007-4.469-1.984-4.48-4.447
		c-0.012-2.463,1.972-4.473,4.436-4.49c2.463-0.02,4.478,1.96,4.502,4.423"/>
	<path id="path1886" d="M116.674,555.588c0,1.405-1.137,2.544-2.541,2.547c-1.405,0.005-2.548-1.13-2.554-2.534
		c-0.009-1.404,1.123-2.549,2.528-2.56c1.404-0.01,2.552,1.118,2.567,2.522"/>
	<path id="path1888" d="M60.401,555.588c0,1.405-1.136,2.544-2.541,2.547c-1.405,0.005-2.547-1.13-2.553-2.534
		c-0.007-1.404,1.124-2.549,2.528-2.56c1.404-0.01,2.552,1.118,2.566,2.522"/>
</g>
</svg>
